<svg width="500" height="500" viewBox="0 0 500 500" fill="none" xmlns="http://www.w3.org/2000/svg" preserveAspectRatio="xMidYMid slice">
  <!-- Watercolor background effect -->
  <defs>
    <filter id="watercolor" x="-50%" y="-50%" width="200%" height="200%">
      <feTurbulence type="fractalNoise" baseFrequency="0.02" numOctaves="4" seed="2"/>
      <feDisplacementMap in="SourceGraphic" scale="30"/>
    </filter>
    <linearGradient id="bgGradient" x1="0%" y1="0%" x2="100%" y2="100%">
      <stop offset="0%" style="stop-color:#E0F2FE;stop-opacity:1" />
      <stop offset="50%" style="stop-color:#BAE6FD;stop-opacity:1" />
      <stop offset="100%" style="stop-color:#7DD3FC;stop-opacity:1" />
    </linearGradient>
  </defs>
  
  <!-- Background with gradient -->
  <rect width="500" height="500" fill="url(#bgGradient)"/>
  
  <!-- Watercolor splashes - Blue tones extending to edges -->
  <ellipse cx="250" cy="250" rx="350" ry="320" fill="#87CEEB" opacity="0.4" filter="url(#watercolor)"/>
  <ellipse cx="100" cy="250" rx="280" ry="300" fill="#5DADE2" opacity="0.35" filter="url(#watercolor)"/>
  <ellipse cx="400" cy="250" rx="280" ry="290" fill="#3498DB" opacity="0.35" filter="url(#watercolor)"/>
  <ellipse cx="250" cy="150" rx="300" ry="250" fill="#AED6F1" opacity="0.4" filter="url(#watercolor)"/>
  <ellipse cx="250" cy="350" rx="300" ry="220" fill="#2E86C1" opacity="0.3" filter="url(#watercolor)"/>
  
  <!-- Building 1 - Far Left (Thin, Tall with horizontal stripes) -->
  <rect x="50" y="150" width="50" height="280" fill="#1B4F72"/>
  <g id="stripes1">
    <rect x="50" y="160" width="50" height="3" fill="white"/>
    <rect x="50" y="170" width="50" height="3" fill="white"/>
    <rect x="50" y="180" width="50" height="3" fill="white"/>
    <rect x="50" y="190" width="50" height="3" fill="white"/>
    <rect x="50" y="200" width="50" height="3" fill="white"/>
    <rect x="50" y="210" width="50" height="3" fill="white"/>
    <rect x="50" y="220" width="50" height="3" fill="white"/>
    <rect x="50" y="230" width="50" height="3" fill="white"/>
    <rect x="50" y="240" width="50" height="3" fill="white"/>
    <rect x="50" y="250" width="50" height="3" fill="white"/>
    <rect x="50" y="260" width="50" height="3" fill="white"/>
    <rect x="50" y="270" width="50" height="3" fill="white"/>
    <rect x="50" y="280" width="50" height="3" fill="white"/>
    <rect x="50" y="290" width="50" height="3" fill="white"/>
    <rect x="50" y="300" width="50" height="3" fill="white"/>
    <rect x="50" y="310" width="50" height="3" fill="white"/>
    <rect x="50" y="320" width="50" height="3" fill="white"/>
    <rect x="50" y="330" width="50" height="3" fill="white"/>
    <rect x="50" y="340" width="50" height="3" fill="white"/>
    <rect x="50" y="350" width="50" height="3" fill="white"/>
    <rect x="50" y="360" width="50" height="3" fill="white"/>
    <rect x="50" y="370" width="50" height="3" fill="white"/>
    <rect x="50" y="380" width="50" height="3" fill="white"/>
    <rect x="50" y="390" width="50" height="3" fill="white"/>
    <rect x="50" y="400" width="50" height="3" fill="white"/>
    <rect x="50" y="410" width="50" height="3" fill="white"/>
  </g>
  
  <!-- Building 2 - Left Center (Diagonal stripes) -->
  <polygon points="110,180 110,430 180,430 180,180" fill="#154360"/>
  <g id="diagonalStripes">
    <line x1="110" y1="200" x2="180" y2="260" stroke="white" stroke-width="4"/>
    <line x1="110" y1="220" x2="180" y2="280" stroke="white" stroke-width="4"/>
    <line x1="110" y1="240" x2="180" y2="300" stroke="white" stroke-width="4"/>
    <line x1="110" y1="260" x2="180" y2="320" stroke="white" stroke-width="4"/>
    <line x1="110" y1="280" x2="180" y2="340" stroke="white" stroke-width="4"/>
    <line x1="110" y1="300" x2="180" y2="360" stroke="white" stroke-width="4"/>
    <line x1="110" y1="320" x2="180" y2="380" stroke="white" stroke-width="4"/>
    <line x1="110" y1="340" x2="180" y2="400" stroke="white" stroke-width="4"/>
    <line x1="110" y1="360" x2="180" y2="420" stroke="white" stroke-width="4"/>
    <line x1="110" y1="380" x2="160" y2="430" stroke="white" stroke-width="4"/>
  </g>
  
  <!-- Building 3 - Center Left (Small dots pattern) -->
  <rect x="190" y="240" width="55" height="190" fill="#1A5276"/>
  <g id="dots1">
    <rect x="197" y="250" width="4" height="4" fill="white"/>
    <rect x="205" y="250" width="4" height="4" fill="white"/>
    <rect x="213" y="250" width="4" height="4" fill="white"/>
    <rect x="221" y="250" width="4" height="4" fill="white"/>
    <rect x="229" y="250" width="4" height="4" fill="white"/>
    <rect x="237" y="250" width="4" height="4" fill="white"/>
    
    <rect x="197" y="260" width="4" height="4" fill="white"/>
    <rect x="205" y="260" width="4" height="4" fill="white"/>
    <rect x="213" y="260" width="4" height="4" fill="white"/>
    <rect x="221" y="260" width="4" height="4" fill="white"/>
    <rect x="229" y="260" width="4" height="4" fill="white"/>
    <rect x="237" y="260" width="4" height="4" fill="white"/>
    
    <rect x="197" y="270" width="4" height="4" fill="white"/>
    <rect x="205" y="270" width="4" height="4" fill="white"/>
    <rect x="213" y="270" width="4" height="4" fill="white"/>
    <rect x="221" y="270" width="4" height="4" fill="white"/>
    <rect x="229" y="270" width="4" height="4" fill="white"/>
    <rect x="237" y="270" width="4" height="4" fill="white"/>
    
    <rect x="197" y="280" width="4" height="4" fill="white"/>
    <rect x="205" y="280" width="4" height="4" fill="white"/>
    <rect x="213" y="280" width="4" height="4" fill="white"/>
    <rect x="221" y="280" width="4" height="4" fill="white"/>
    <rect x="229" y="280" width="4" height="4" fill="white"/>
    <rect x="237" y="280" width="4" height="4" fill="white"/>
    
    <!-- Repeat pattern for remaining height -->
    <rect x="197" y="290" width="4" height="4" fill="white"/>
    <rect x="205" y="290" width="4" height="4" fill="white"/>
    <rect x="213" y="290" width="4" height="4" fill="white"/>
    <rect x="221" y="290" width="4" height="4" fill="white"/>
    <rect x="229" y="290" width="4" height="4" fill="white"/>
    <rect x="237" y="290" width="4" height="4" fill="white"/>
    
    <rect x="197" y="300" width="4" height="4" fill="white"/>
    <rect x="205" y="300" width="4" height="4" fill="white"/>
    <rect x="213" y="300" width="4" height="4" fill="white"/>
    <rect x="221" y="300" width="4" height="4" fill="white"/>
    <rect x="229" y="300" width="4" height="4" fill="white"/>
    <rect x="237" y="300" width="4" height="4" fill="white"/>
    
    <rect x="197" y="320" width="4" height="4" fill="white"/>
    <rect x="205" y="320" width="4" height="4" fill="white"/>
    <rect x="213" y="320" width="4" height="4" fill="white"/>
    <rect x="221" y="320" width="4" height="4" fill="white"/>
    <rect x="229" y="320" width="4" height="4" fill="white"/>
    <rect x="237" y="320" width="4" height="4" fill="white"/>
    
    <rect x="197" y="340" width="4" height="4" fill="white"/>
    <rect x="205" y="340" width="4" height="4" fill="white"/>
    <rect x="213" y="340" width="4" height="4" fill="white"/>
    <rect x="221" y="340" width="4" height="4" fill="white"/>
    <rect x="229" y="340" width="4" height="4" fill="white"/>
    <rect x="237" y="340" width="4" height="4" fill="white"/>
    
    <rect x="197" y="360" width="4" height="4" fill="white"/>
    <rect x="205" y="360" width="4" height="4" fill="white"/>
    <rect x="213" y="360" width="4" height="4" fill="white"/>
    <rect x="221" y="360" width="4" height="4" fill="white"/>
    <rect x="229" y="360" width="4" height="4" fill="white"/>
    <rect x="237" y="360" width="4" height="4" fill="white"/>
    
    <rect x="197" y="380" width="4" height="4" fill="white"/>
    <rect x="205" y="380" width="4" height="4" fill="white"/>
    <rect x="213" y="380" width="4" height="4" fill="white"/>
    <rect x="221" y="380" width="4" height="4" fill="white"/>
    <rect x="229" y="380" width="4" height="4" fill="white"/>
    <rect x="237" y="380" width="4" height="4" fill="white"/>
    
    <rect x="197" y="400" width="4" height="4" fill="white"/>
    <rect x="205" y="400" width="4" height="4" fill="white"/>
    <rect x="213" y="400" width="4" height="4" fill="white"/>
    <rect x="221" y="400" width="4" height="4" fill="white"/>
    <rect x="229" y="400" width="4" height="4" fill="white"/>
    <rect x="237" y="400" width="4" height="4" fill="white"/>
    
    <rect x="197" y="420" width="4" height="4" fill="white"/>
    <rect x="205" y="420" width="4" height="4" fill="white"/>
    <rect x="213" y="420" width="4" height="4" fill="white"/>
    <rect x="221" y="420" width="4" height="4" fill="white"/>
    <rect x="229" y="420" width="4" height="4" fill="white"/>
  </g>
  
  <!-- Building 4 - Center (Wide with horizontal stripes) -->
  <rect x="255" y="220" width="65" height="210" fill="#21618C"/>
  <rect x="255" y="230" width="65" height="5" fill="white"/>
  <rect x="255" y="245" width="65" height="5" fill="white"/>
  <rect x="255" y="260" width="65" height="5" fill="white"/>
  <rect x="255" y="275" width="65" height="5" fill="white"/>
  <rect x="255" y="290" width="65" height="5" fill="white"/>
  <rect x="255" y="305" width="65" height="5" fill="white"/>
  <rect x="255" y="320" width="65" height="5" fill="white"/>
  <rect x="255" y="335" width="65" height="5" fill="white"/>
  <rect x="255" y="350" width="65" height="5" fill="white"/>
  <rect x="255" y="365" width="65" height="5" fill="white"/>
  <rect x="255" y="380" width="65" height="5" fill="white"/>
  <rect x="255" y="395" width="65" height="5" fill="white"/>
  <rect x="255" y="410" width="65" height="5" fill="white"/>
  
  <!-- Building 5 - Tallest Center (Grid pattern) -->
  <rect x="175" y="120" width="60" height="310" fill="#0E3B5C"/>
  <g id="gridPattern">
    <rect x="182" y="135" width="8" height="10" fill="white"/>
    <rect x="195" y="135" width="8" height="10" fill="white"/>
    <rect x="208" y="135" width="8" height="10" fill="white"/>
    <rect x="221" y="135" width="8" height="10" fill="white"/>
    
    <rect x="182" y="155" width="8" height="10" fill="white"/>
    <rect x="195" y="155" width="8" height="10" fill="white"/>
    <rect x="208" y="155" width="8" height="10" fill="white"/>
    <rect x="221" y="155" width="8" height="10" fill="white"/>
    
    <rect x="182" y="175" width="8" height="10" fill="white"/>
    <rect x="195" y="175" width="8" height="10" fill="white"/>
    <rect x="208" y="175" width="8" height="10" fill="white"/>
    <rect x="221" y="175" width="8" height="10" fill="white"/>
    
    <rect x="182" y="195" width="8" height="10" fill="white"/>
    <rect x="195" y="195" width="8" height="10" fill="white"/>
    <rect x="208" y="195" width="8" height="10" fill="white"/>
    <rect x="221" y="195" width="8" height="10" fill="white"/>
    
    <rect x="182" y="215" width="8" height="10" fill="white"/>
    <rect x="195" y="215" width="8" height="10" fill="white"/>
    <rect x="208" y="215" width="8" height="10" fill="white"/>
    <rect x="221" y="215" width="8" height="10" fill="white"/>
    
    <rect x="182" y="235" width="8" height="10" fill="white"/>
    <rect x="195" y="235" width="8" height="10" fill="white"/>
    <rect x="208" y="235" width="8" height="10" fill="white"/>
    <rect x="221" y="235" width="8" height="10" fill="white"/>
    
    <rect x="182" y="255" width="8" height="10" fill="white"/>
    <rect x="195" y="255" width="8" height="10" fill="white"/>
    <rect x="208" y="255" width="8" height="10" fill="white"/>
    <rect x="221" y="255" width="8" height="10" fill="white"/>
    
    <rect x="182" y="275" width="8" height="10" fill="white"/>
    <rect x="195" y="275" width="8" height="10" fill="white"/>
    <rect x="208" y="275" width="8" height="10" fill="white"/>
    <rect x="221" y="275" width="8" height="10" fill="white"/>
    
    <rect x="182" y="295" width="8" height="10" fill="white"/>
    <rect x="195" y="295" width="8" height="10" fill="white"/>
    <rect x="208" y="295" width="8" height="10" fill="white"/>
    <rect x="221" y="295" width="8" height="10" fill="white"/>
    
    <rect x="182" y="315" width="8" height="10" fill="white"/>
    <rect x="195" y="315" width="8" height="10" fill="white"/>
    <rect x="208" y="315" width="8" height="10" fill="white"/>
    <rect x="221" y="315" width="8" height="10" fill="white"/>
    
    <rect x="182" y="335" width="8" height="10" fill="white"/>
    <rect x="195" y="335" width="8" height="10" fill="white"/>
    <rect x="208" y="335" width="8" height="10" fill="white"/>
    <rect x="221" y="335" width="8" height="10" fill="white"/>
    
    <rect x="182" y="355" width="8" height="10" fill="white"/>
    <rect x="195" y="355" width="8" height="10" fill="white"/>
    <rect x="208" y="355" width="8" height="10" fill="white"/>
    <rect x="221" y="355" width="8" height="10" fill="white"/>
    
    <rect x="182" y="375" width="8" height="10" fill="white"/>
    <rect x="195" y="375" width="8" height="10" fill="white"/>
    <rect x="208" y="375" width="8" height="10" fill="white"/>
    <rect x="221" y="375" width="8" height="10" fill="white"/>
    
    <rect x="182" y="395" width="8" height="10" fill="white"/>
    <rect x="195" y="395" width="8" height="10" fill="white"/>
    <rect x="208" y="395" width="8" height="10" fill="white"/>
    <rect x="221" y="395" width="8" height="10" fill="white"/>
    
    <rect x="182" y="415" width="8" height="10" fill="white"/>
    <rect x="195" y="415" width="8" height="10" fill="white"/>
    <rect x="208" y="415" width="8" height="10" fill="white"/>
  </g>
  
  <!-- Building 6 - Right Center (Small grid) -->
  <rect x="330" y="200" width="60" height="230" fill="#1A5276"/>
  <g id="smallGrid">
    <rect x="338" y="215" width="6" height="8" fill="white"/>
    <rect x="348" y="215" width="6" height="8" fill="white"/>
    <rect x="358" y="215" width="6" height="8" fill="white"/>
    <rect x="368" y="215" width="6" height="8" fill="white"/>
    <rect x="378" y="215" width="6" height="8" fill="white"/>
    
    <rect x="338" y="230" width="6" height="8" fill="white"/>
    <rect x="348" y="230" width="6" height="8" fill="white"/>
    <rect x="358" y="230" width="6" height="8" fill="white"/>
    <rect x="368" y="230" width="6" height="8" fill="white"/>
    <rect x="378" y="230" width="6" height="8" fill="white"/>
    
    <rect x="338" y="245" width="6" height="8" fill="white"/>
    <rect x="348" y="245" width="6" height="8" fill="white"/>
    <rect x="358" y="245" width="6" height="8" fill="white"/>
    <rect x="368" y="245" width="6" height="8" fill="white"/>
    <rect x="378" y="245" width="6" height="8" fill="white"/>
    
    <rect x="338" y="260" width="6" height="8" fill="white"/>
    <rect x="348" y="260" width="6" height="8" fill="white"/>
    <rect x="358" y="260" width="6" height="8" fill="white"/>
    <rect x="368" y="260" width="6" height="8" fill="white"/>
    <rect x="378" y="260" width="6" height="8" fill="white"/>
    
    <rect x="338" y="275" width="6" height="8" fill="white"/>
    <rect x="348" y="275" width="6" height="8" fill="white"/>
    <rect x="358" y="275" width="6" height="8" fill="white"/>
    <rect x="368" y="275" width="6" height="8" fill="white"/>
    <rect x="378" y="275" width="6" height="8" fill="white"/>
    
    <rect x="338" y="290" width="6" height="8" fill="white"/>
    <rect x="348" y="290" width="6" height="8" fill="white"/>
    <rect x="358" y="290" width="6" height="8" fill="white"/>
    <rect x="368" y="290" width="6" height="8" fill="white"/>
    <rect x="378" y="290" width="6" height="8" fill="white"/>
    
    <rect x="338" y="305" width="6" height="8" fill="white"/>
    <rect x="348" y="305" width="6" height="8" fill="white"/>
    <rect x="358" y="305" width="6" height="8" fill="white"/>
    <rect x="368" y="305" width="6" height="8" fill="white"/>
    <rect x="378" y="305" width="6" height="8" fill="white"/>
    
    <rect x="338" y="320" width="6" height="8" fill="white"/>
    <rect x="348" y="320" width="6" height="8" fill="white"/>
    <rect x="358" y="320" width="6" height="8" fill="white"/>
    <rect x="368" y="320" width="6" height="8" fill="white"/>
    <rect x="378" y="320" width="6" height="8" fill="white"/>
    
    <rect x="338" y="335" width="6" height="8" fill="white"/>
    <rect x="348" y="335" width="6" height="8" fill="white"/>
    <rect x="358" y="335" width="6" height="8" fill="white"/>
    <rect x="368" y="335" width="6" height="8" fill="white"/>
    <rect x="378" y="335" width="6" height="8" fill="white"/>
    
    <rect x="338" y="350" width="6" height="8" fill="white"/>
    <rect x="348" y="350" width="6" height="8" fill="white"/>
    <rect x="358" y="350" width="6" height="8" fill="white"/>
    <rect x="368" y="350" width="6" height="8" fill="white"/>
    <rect x="378" y="350" width="6" height="8" fill="white"/>
    
    <rect x="338" y="365" width="6" height="8" fill="white"/>
    <rect x="348" y="365" width="6" height="8" fill="white"/>
    <rect x="358" y="365" width="6" height="8" fill="white"/>
    <rect x="368" y="365" width="6" height="8" fill="white"/>
    <rect x="378" y="365" width="6" height="8" fill="white"/>
    
    <rect x="338" y="380" width="6" height="8" fill="white"/>
    <rect x="348" y="380" width="6" height="8" fill="white"/>
    <rect x="358" y="380" width="6" height="8" fill="white"/>
    <rect x="368" y="380" width="6" height="8" fill="white"/>
    <rect x="378" y="380" width="6" height="8" fill="white"/>
    
    <rect x="338" y="395" width="6" height="8" fill="white"/>
    <rect x="348" y="395" width="6" height="8" fill="white"/>
    <rect x="358" y="395" width="6" height="8" fill="white"/>
    <rect x="368" y="395" width="6" height="8" fill="white"/>
    <rect x="378" y="395" width="6" height="8" fill="white"/>
    
    <rect x="338" y="410" width="6" height="8" fill="white"/>
    <rect x="348" y="410" width="6" height="8" fill="white"/>
    <rect x="358" y="410" width="6" height="8" fill="white"/>
    <rect x="368" y="410" width="6" height="8" fill="white"/>
    <rect x="378" y="410" width="6" height="8" fill="white"/>
  </g>
  
  <!-- Building 7 - Far Right (Wide with grid) -->
  <rect x="400" y="250" width="70" height="180" fill="#154360"/>
  <g id="wideGrid">
    <rect x="408" y="265" width="8" height="10" fill="white"/>
    <rect x="422" y="265" width="8" height="10" fill="white"/>
    <rect x="436" y="265" width="8" height="10" fill="white"/>
    <rect x="450" y="265" width="8" height="10" fill="white"/>
    
    <rect x="408" y="285" width="8" height="10" fill="white"/>
    <rect x="422" y="285" width="8" height="10" fill="white"/>
    <rect x="436" y="285" width="8" height="10" fill="white"/>
    <rect x="450" y="285" width="8" height="10" fill="white"/>
    
    <rect x="408" y="305" width="8" height="10" fill="white"/>
    <rect x="422" y="305" width="8" height="10" fill="white"/>
    <rect x="436" y="305" width="8" height="10" fill="white"/>
    <rect x="450" y="305" width="8" height="10" fill="white"/>
    
    <rect x="408" y="325" width="8" height="10" fill="white"/>
    <rect x="422" y="325" width="8" height="10" fill="white"/>
    <rect x="436" y="325" width="8" height="10" fill="white"/>
    <rect x="450" y="325" width="8" height="10" fill="white"/>
    
    <rect x="408" y="345" width="8" height="10" fill="white"/>
    <rect x="422" y="345" width="8" height="10" fill="white"/>
    <rect x="436" y="345" width="8" height="10" fill="white"/>
    <rect x="450" y="345" width="8" height="10" fill="white"/>
    
    <rect x="408" y="365" width="8" height="10" fill="white"/>
    <rect x="422" y="365" width="8" height="10" fill="white"/>
    <rect x="436" y="365" width="8" height="10" fill="white"/>
    <rect x="450" y="365" width="8" height="10" fill="white"/>
    
    <rect x="408" y="385" width="8" height="10" fill="white"/>
    <rect x="422" y="385" width="8" height="10" fill="white"/>
    <rect x="436" y="385" width="8" height="10" fill="white"/>
    <rect x="450" y="385" width="8" height="10" fill="white"/>
    
    <rect x="408" y="405" width="8" height="10" fill="white"/>
    <rect x="422" y="405" width="8" height="10" fill="white"/>
    <rect x="436" y="405" width="8" height="10" fill="white"/>
    <rect x="450" y="405" width="8" height="10" fill="white"/>
  </g>
</svg>